<?xml version="1.0"?>
<svg width="1024" height="1024" xmlns="http://www.w3.org/2000/svg" xmlns:svg="http://www.w3.org/2000/svg" version="1.1">
 <g class="layer">
  <title>Layer 1</title>
  <path d="m540,229c3.44,2.01 5.97,4.33 8.63,7.31c0.64,0.69 1.28,1.38 1.95,2.09c9.13,9.87 17.06,20.42 24.05,31.91c0.65,0.99 1.3,1.98 1.98,3c4.09,6.42 6.57,11.35 5.02,19c-2.47,9.83 -12.77,18.3 -21.14,23.39c-18.43,10.47 -38.93,18.04 -60.32,13.95c-9.59,-2.84 -17.64,-8.26 -23.55,-16.34c-13.09,12.41 -21.58,31.42 -22.37,49.44c0.15,8.4 2.43,16.43 4.37,24.56c6.28,26.31 4.72,48.18 -6,73c-0.32,0.99 -0.65,1.98 -1,3c11.41,-8.27 22.47,-16.81 33.2,-25.94c3.93,-3.34 7.93,-6.59 11.98,-9.79c2.2,-1.76 4.36,-3.54 6.52,-5.35c24.1,-20.11 48.17,-38.04 78.56,-47.29c0.74,-0.23 1.48,-0.46 2.24,-0.69c14.1,-4.04 27.65,-5.49 42.26,-5.37c0.83,0 1.66,0 2.52,0.01c12.64,0.07 24.55,0.76 36.73,4.42c1.25,0.36 1.25,0.36 2.53,0.72c23.56,6.72 43.89,18.09 60.47,36.28c9.64,19.3 -2.89,60.89 -9.01,80.18c-15.5,45.6 -42.86,87.16 -81.99,115.82c-1.31,0.97 -1.31,0.97 -2.64,1.95c-16.29,11.69 -16.29,11.69 -23.36,14.05c-0.24,-1.25 -0.24,-1.25 -0.48,-2.53c-0.73,-3.9 -1.47,-7.81 -2.21,-11.72c-0.14,-0.7 -0.27,-1.4 -0.41,-2.13c-1.84,-9.68 -3.86,-19.25 -6.61,-28.73c-1.44,-5.24 -1.44,-5.24 -0.8,-8.08c2.25,-2.7 4.9,-4.86 7.63,-7.06c17.17,-14.2 30.11,-31.94 41.88,-50.75c-3.42,1.51 -5.93,3.52 -8.75,5.94c-41.24,34.12 -98.13,58.01 -152,58.27c-1,0 -2,0.01 -3.03,0.02c-3.22,0.01 -6.44,0.02 -9.66,0.02c-1.65,0 -1.65,0 -3.34,0c-16.6,-0.01 -32.82,-0.47 -49.23,-3.25c-1.02,-0.16 -2.04,-0.33 -3.09,-0.5c-26.83,-4.48 -63.13,-11.28 -80.86,-34.01c-14.29,-21.35 -16.28,-49.56 -11.48,-74.34c0.14,-0.71 0.29,-1.42 0.43,-2.15c0.18,-0.86 0.35,-1.73 0.53,-2.62c6.84,-33.31 21.06,-64.07 37.13,-93.85c1.53,-2.87 3.02,-5.76 4.5,-8.65c5.87,-11.42 11.82,-22.73 18.51,-33.69c1.49,-2.44 2.95,-4.88 4.42,-7.33c15.48,-25.61 32.95,-50.59 61.73,-61.86c1.14,-0.46 2.29,-0.91 3.47,-1.38c3.2,-1.28 6.4,-2.54 9.61,-3.79c2.2,-0.87 4.4,-1.73 6.6,-2.6c4.71,-1.85 9.42,-3.7 14.13,-5.54c0.74,-0.29 1.48,-0.58 2.25,-0.88c8.07,-3.16 16.18,-6.24 24.33,-9.19c0.69,-0.25 1.39,-0.51 2.1,-0.77c7.32,-2.61 13.88,-3.4 21.07,-0.16z" fill="#04BC07" id="svg_3"/>
  <path d="m515.26,132.8c0.94,-0.01 1.88,-0.01 2.84,-0.02c3.01,-0.02 6.02,-0.03 9.03,-0.03c1.54,0 1.54,0 3.12,0c15.47,0.02 30.48,0.53 45.75,3.25c1.5,0.25 1.5,0.25 3.02,0.51c54.74,9.26 107.56,33.85 148.63,71.36c2,1.82 4.04,3.57 6.1,5.32c10,8.74 19.09,18.34 27.25,28.81c0.86,1.06 1.71,2.11 2.57,3.16c41.54,51.26 64.63,117.11 64.68,183.03c0,1.07 0,1.07 0,2.15c-0.06,43.47 -8.97,84.75 -26.25,124.66c-0.36,0.85 -0.73,1.7 -1.11,2.58c-7.65,17.46 -17.2,34.34 -28.89,49.42c-0.67,0.92 -1.34,1.84 -2.03,2.79c-14.35,19.68 -31.51,38.52 -50.97,53.21c-1.28,1.01 -2.56,2.02 -3.84,3.03c-9.69,7.61 -19.68,14.51 -30.16,20.97c-0.67,0.42 -1.34,0.84 -2.03,1.27c-31.5,19.61 -66.68,32.43 -103.09,39.11c-1.04,0.19 -1.04,0.19 -2.09,0.38c-32.98,6.04 -68.87,5.38 -101.79,-0.76c-1.65,-0.29 -1.65,-0.29 -3.34,-0.6c-26.36,-4.86 -52.69,-13.38 -76.66,-25.4c-1.28,-0.63 -1.28,-0.63 -2.59,-1.28c-22.15,-11.01 -44.06,-24.49 -62.11,-41.56c-1.95,-1.83 -3.95,-3.58 -5.98,-5.33c-4.78,-4.17 -9.28,-8.59 -13.76,-13.08c-0.83,-0.84 -1.67,-1.68 -2.54,-2.54c-5.75,-5.81 -11.05,-11.71 -16.02,-18.21c-1.27,-1.54 -2.54,-3.08 -3.81,-4.62c-10.82,-13.65 -19.9,-28.07 -28.19,-43.38c-0.37,-0.69 -0.75,-1.37 -1.14,-2.08c-12.73,-23.57 -21.22,-49.24 -26.61,-75.42c-0.18,-0.9 -0.37,-1.79 -0.56,-2.72c-3.69,-19.04 -5.19,-37.96 -5.08,-57.34c0.02,-3.44 0,-6.87 -0.02,-10.3c-0.01,-14.92 1.1,-29.41 3.41,-44.14c0.11,-0.69 0.22,-1.38 0.33,-2.1c0.62,-3.8 1.35,-7.57 2.17,-11.33c0.25,-1.14 0.5,-2.28 0.75,-3.45c5.05,-22.06 12.66,-43.86 22.75,-64.12c0.37,-0.75 0.73,-1.5 1.1,-2.28c9.29,-19.16 21.35,-37.3 34.9,-53.72c0.47,-0.56 0.93,-1.12 1.41,-1.71c11.88,-14.35 24.85,-27.85 39.59,-39.29c1.16,-0.94 2.32,-1.9 3.48,-2.85c18.21,-14.94 38.25,-27.07 59.52,-37.15c0.68,-0.32 1.36,-0.65 2.07,-0.99c35.26,-16.83 77.02,-27.01 116.19,-27.21zm-178.91,128.77c-3.7,3.94 -7.05,8.15 -10.35,12.43c-0.51,0.65 -1.01,1.3 -1.54,1.97c-9.85,12.62 -18.02,25.86 -25.46,40.03c-0.39,0.75 -0.79,1.5 -1.19,2.27c-13.59,26.3 -21.39,55.43 -24.81,84.73c-0.2,1.69 -0.2,1.69 -0.4,3.4c-0.32,3.54 -0.5,7.06 -0.6,10.6c-0.03,0.92 -0.05,1.84 -0.08,2.79c-1.69,67.96 20.66,135.14 67.86,184.86c1.07,1.12 2.15,2.24 3.22,3.35c0.59,0.61 1.17,1.22 1.77,1.85c8.52,8.88 17.3,16.9 27.23,24.15c1,0.74 1,0.74 2.03,1.49c41.74,30.53 91.86,50.21 143.97,51.51c0.69,0.02 1.37,0.04 2.08,0.07c44.89,1.2 88.27,-9.02 127.92,-30.07c1.58,-0.79 1.58,-0.79 3.19,-1.59c28.7,-14.66 54.81,-37.3 74.81,-62.41c0.89,-1.09 1.78,-2.19 2.67,-3.29c16.22,-20.14 29.26,-42.45 38.33,-66.71c0.34,-0.89 0.67,-1.78 1.02,-2.7c23.14,-62.93 21.48,-133.63 -6.41,-194.78c-6.5,-13.89 -13.69,-27.04 -22.61,-39.52c-0.45,-0.64 -0.91,-1.29 -1.38,-1.95c-6.93,-9.75 -14.49,-18.65 -22.84,-27.22c-1.77,-1.82 -3.53,-3.65 -5.29,-5.49c-7.12,-7.36 -14.55,-13.97 -22.78,-20.07c-1.63,-1.21 -3.24,-2.44 -4.86,-3.68c-16.44,-12.37 -34.95,-22.49 -53.85,-30.59c-0.65,-0.27 -1.29,-0.55 -1.96,-0.84c-19.42,-8.14 -40.26,-13.04 -61.04,-16.16c-0.73,-0.11 -1.46,-0.23 -2.21,-0.35c-84.46,-13.15 -168.29,21.37 -226.44,81.92z" fill="#07B207" id="svg_4" transform="matrix(1 0 0 1 0 0)"/>
 </g>
</svg>